<svg xmlns="http://www.w3.org/2000/svg" width="62.2" height="58.312" viewBox="0 0 62.2 58.312"><defs><style>.a{fill:#3cd278;}</style></defs><path class="a" d="M35.3,21.687A23.336,23.336,0,0,0,15.55,32.129V21.687A11.675,11.675,0,0,0,3.887,10.025a3.887,3.887,0,0,0,0,7.775,3.893,3.893,0,0,1,3.887,3.887v31.1a7.782,7.782,0,0,0,7.775,7.775H36.931a1.943,1.943,0,0,0,1.944-1.944V56.675a3.888,3.888,0,0,0-3.888-3.887H31.1L46.65,41.125V58.619a1.943,1.943,0,0,0,1.944,1.944h3.887a1.943,1.943,0,0,0,1.944-1.944V33.576a15.4,15.4,0,0,1-3.888.552A15.575,15.575,0,0,1,35.3,21.687ZM54.425,10.025H46.65L38.875,2.25V18.577a11.662,11.662,0,0,0,23.325,0V2.25Zm-8.747,9.719A1.944,1.944,0,1,1,47.622,17.8,1.943,1.943,0,0,1,45.678,19.744Zm9.719,0A1.944,1.944,0,1,1,57.341,17.8,1.943,1.943,0,0,1,55.4,19.744Z" transform="translate(0 -2.25)"/></svg>